<svg xmlns="http://www.w3.org/2000/svg" xmlns:xlink="http://www.w3.org/1999/xlink" version="1.1" width="256" height="256" viewBox="0 0 256 256" xml:space="preserve">

<defs>
</defs>
<g style="stroke: none; stroke-width: 0; stroke-dasharray: none; stroke-linecap: butt; stroke-linejoin: miter; stroke-miterlimit: 10; fill: none; fill-rule: nonzero; opacity: 1;" transform="translate(1.4065934065934016 1.4065934065934016) scale(2.81 2.81)" >
	<path d="M 22.107 67.708 c -0.531 0 -1.053 -0.211 -1.438 -0.609 c -0.592 -0.612 -0.731 -1.532 -0.348 -2.292 l 22.894 -45.326 c 0.418 -0.826 1.348 -1.257 2.249 -1.044 C 46.364 18.652 47 19.457 47 20.383 v 34.709 c 0 0.778 -0.452 1.486 -1.159 1.814 L 22.948 67.522 C 22.678 67.647 22.392 67.708 22.107 67.708 z M 43 28.778 L 26.486 61.473 L 43 53.814 V 28.778 z" style="stroke: none; stroke-width: 1; stroke-dasharray: none; stroke-linecap: butt; stroke-linejoin: miter; stroke-miterlimit: 10; fill: rgb(0,0,0); fill-rule: nonzero; opacity: 1;" transform=" matrix(1 0 0 1 0 0) " stroke-linecap="round" />
	<polygon points="45,20.38 67.89,65.71 45,55.09 " style="stroke: none; stroke-width: 1; stroke-dasharray: none; stroke-linecap: butt; stroke-linejoin: miter; stroke-miterlimit: 10; fill: rgb(0,0,0); fill-rule: nonzero; opacity: 1;" transform="  matrix(1 0 0 1 0 0) "/>
	<path d="M 67.893 67.708 c -0.284 0 -0.571 -0.061 -0.841 -0.186 L 44.159 56.906 C 43.452 56.578 43 55.87 43 55.092 V 20.383 c 0 -0.926 0.636 -1.731 1.537 -1.946 c 0.901 -0.214 1.832 0.217 2.249 1.044 l 22.894 45.326 c 0.384 0.76 0.244 1.68 -0.348 2.292 C 68.946 67.497 68.424 67.708 67.893 67.708 z M 47 53.814 l 16.514 7.658 L 47 28.778 V 53.814 z" style="stroke: none; stroke-width: 1; stroke-dasharray: none; stroke-linecap: butt; stroke-linejoin: miter; stroke-miterlimit: 10; fill: rgb(0,0,0); fill-rule: nonzero; opacity: 1;" transform=" matrix(1 0 0 1 0 0) " stroke-linecap="round" />
	<path d="M 45 90 C 20.187 90 0 69.813 0 45 C 0 20.187 20.187 0 45 0 c 24.813 0 45 20.187 45 45 C 90 69.813 69.813 90 45 90 z M 45 4 C 22.393 4 4 22.393 4 45 s 18.393 41 41 41 s 41 -18.393 41 -41 S 67.607 4 45 4 z" style="stroke: none; stroke-width: 1; stroke-dasharray: none; stroke-linecap: butt; stroke-linejoin: miter; stroke-miterlimit: 10; fill: rgb(0,0,0); fill-rule: nonzero; opacity: 1;" transform=" matrix(1 0 0 1 0 0) " stroke-linecap="round" />
</g>
</svg>